<svg version="1.2" xmlns="http://www.w3.org/2000/svg" viewBox="0 0 16 12" width="16" height="12"><style>.a{fill:#fff}</style><path class="a" d="m16 1.4q-0.9 0.4-1.9 0.5c0.7-0.4 1.2-1 1.5-1.7q-1 0.6-2.1 0.8c-0.6-0.6-1.5-1-2.4-1-1.8 0-3.3 1.4-3.3 3q0 0.4 0.1 0.7c-2.7-0.1-5.2-1.3-6.8-3.1q-0.4 0.6-0.4 1.5c0 1 0.5 2 1.4 2.5q-0.8 0-1.5-0.4 0 0 0 0.1c0 1.4 1.2 2.6 2.7 2.9q-0.4 0.1-0.9 0.1-0.3 0-0.6 0c0.4 1.2 1.6 2.1 3.1 2.1-1.2 0.8-2.6 1.3-4.1 1.3q-0.4 0-0.8-0.1c1.5 0.9 3.2 1.4 5 1.4 6.1 0 9.4-4.6 9.4-8.6q0-0.2 0-0.4 0.9-0.7 1.6-1.6z"/></svg>