<svg class="sprite"><svg version="1.2" xmlns="http://www.w3.org/2000/svg" viewBox="0 0 43 40" width="43rem" height="40rem"><path fill-rule="evenodd" class="a" d="M18.7 11.2C20.6 15 22.1 19 23.5 23H22c-2.5 0-5.1 0-7.7-.1zM0 40c1.6 0 3.2-.1 4.9-.3.3-.1.8-.3 1.2-.3 3 0 6 .6 9 .6q.1-.4.1-.7v-1.5c-1.5-.3-5.3-.3-5.3-2.3 0-1 2.6-7.9 3.3-9.4l11.6.1c.4 1.1 3.7 8.8 3.7 9.7 0 1-1.3 1.2-2 1.3l-3.4.8q-.1 1-.1 2c3.4-.1 6.8-.4 10.1-.4s6.6.4 9.9.4v-.7c0-.5-.1-.9-.1-1.4-1.3-.5-3.6-.7-4.5-1.3-.4-.3-.7-1.1-.9-1.5-1.3-2.7-2.2-5.5-3.4-8.2-1.9-4.6-3.7-9.2-5.6-13.8L23.2.6q-.2-.3-.3-.6h-3.3l-7.3 18.9-6.1 16C5.1 37.7 2.5 37.2.1 38z"/></svg><svg version="1.2" xmlns="http://www.w3.org/2000/svg" viewBox="0 0 53 40" width="53" height="40"><path fill-rule="evenodd" class="a" d="M16.6 32.7c.4-.4.4-.9 0-1.3L5.3 20 16.6 8.6c.4-.4.4-.9 0-1.3l-1.4-1.5c-.4-.4-1-.4-1.4 0L.4 19.3c-.4.4-.4 1 0 1.4l13.4 13.5c.4.4 1 .4 1.4 0zm17-31c.2-.4-.1-1-.6-1.1L31.2.1a.8.8 0 0 0-1.1.6L19.3 38.2c-.1.4.1 1 .6 1.1l1.8.5c.5.1 1-.1 1.1-.6zm19 18.8c.4-.3.4-.9 0-1.3L39.2 5.7c-.4-.4-1-.4-1.4 0l-1.4 1.4c-.4.4-.4 1 0 1.4l11.3 11.4-11.3 11.4c-.4.3-.4.9 0 1.3l1.4 1.4c.4.4 1 .4 1.4 0z"/></svg><svg version="1.2" xmlns="http://www.w3.org/2000/svg" viewBox="0 0 49 49" width="49" height="49"><path fill-rule="evenodd" class="a" d="M25 .9C11.7.9 1 11.6 1 24.9c0 13.2 10.7 24 24 24 13.2 0 24-10.8 24-24 0-13.3-10.8-24-24-24zm0 3.4c3.5 0 6.8.9 9.7 2.4l-5.2 5.2c-1.5-.5-2.9-.8-4.5-.8q-2.3.1-4.5.8l-5.2-5.2c2.9-1.5 6.2-2.4 9.7-2.4zM6.8 34.5c-1.5-2.9-2.4-6.2-2.4-9.6 0-3.5.9-6.8 2.4-9.7l5.2 5.2c-.4 1.4-.7 2.9-.7 4.5q0 2.3.7 4.4zM25 45.4c-3.5 0-6.8-.9-9.7-2.4l5.2-5.2q2.2.8 4.5.8c1.6 0 3-.3 4.5-.8l5.2 5.2c-2.9 1.5-6.2 2.4-9.7 2.4zm0-10.3c-5.7 0-10.3-4.6-10.3-10.2 0-5.7 4.6-10.3 10.3-10.3 5.7 0 10.3 4.6 10.3 10.3 0 5.6-4.6 10.2-10.3 10.2zm13-5.8q.7-2.1.7-4.4 0-2.4-.7-4.5l5.1-5.2a20 20 0 0 1 2.5 9.7c0 3.4-.9 6.7-2.5 9.6z"/></svg></svg>